HIERARCHY
ROOT Hips
{
  OFFSET 0.000000 0.000000 0.000000
  CHANNELS 6 Xposition Yposition Zposition Zrotation Yrotation Xrotation
  JOINT Spine
  {
    OFFSET 0.062172 1.937575 -0.492720
    CHANNELS 3 Zrotation Yrotation Xrotation
    JOINT Spine1
    {
      OFFSET -0.031137 2.036208 -0.058297
      CHANNELS 3 Zrotation Yrotation Xrotation
      JOINT Spine2
      {
        OFFSET -0.069919 2.151870 0.173696
        CHANNELS 3 Zrotation Yrotation Xrotation
        JOINT Neck
        {
          OFFSET 0.044207 1.410100 0.265621
          CHANNELS 3 Zrotation Yrotation Xrotation
          JOINT Head
          {
            OFFSET -0.049801 1.458443 -0.006888
            CHANNELS 3 Zrotation Yrotation Xrotation
            End Site
            {
              OFFSET 0 0 0
            }
          }
        }
        JOINT LeftShoulder
        {
          OFFSET 2.183824 1.477530 -0.356942
          CHANNELS 3 Zrotation Yrotation Xrotation
          JOINT LeftArm
          {
            OFFSET 5.054600 -0.000000 0.000000
            CHANNELS 3 Zrotation Yrotation Xrotation
            JOINT LeftForeArm
            {
              OFFSET 3.390130 -0.000000 0.000000
              CHANNELS 3 Zrotation Yrotation Xrotation
              JOINT LeftHand
              {
                OFFSET 0.572425 -0.000000 -0.000000
                CHANNELS 3 Zrotation Yrotation Xrotation
                JOINT LeftHandIndex1
                {
                  OFFSET 0.461504 -0.000000 -0.000000
                  CHANNELS 3 Zrotation Yrotation Xrotation
                  End Site
                  {
                    OFFSET 0 0 0
                  }
                }
              }
            }
          }
        }
        JOINT RightShoulder
        {
          OFFSET -2.060333 1.728387 -0.474374
          CHANNELS 3 Zrotation Yrotation Xrotation
          JOINT RightArm
          {
            OFFSET -5.070100 -0.000000 0.000000
            CHANNELS 3 Zrotation Yrotation Xrotation
            JOINT RightForeArm
            {
              OFFSET -3.149570 -0.000000 -0.000000
              CHANNELS 3 Zrotation Yrotation Xrotation
              JOINT RightHand
              {
                OFFSET -0.718191 -0.000000 -0.000000
                CHANNELS 3 Zrotation Yrotation Xrotation
                JOINT RightHandIndex1
                {
                  OFFSET -0.579024 -0.000000 -0.000000
                  CHANNELS 3 Zrotation Yrotation Xrotation
                  End Site
                  {
                    OFFSET 0 0 0
                  }
                }
              }
            }
          }
        }
      }
    }
  }
  JOINT LeftUpLeg
  {
    OFFSET 2.115383 -5.811973 0.000000
    CHANNELS 3 Zrotation Yrotation Xrotation
    JOINT LeftLeg
    {
      OFFSET 2.365414 -6.498926 0.000000
      CHANNELS 3 Zrotation Yrotation Xrotation
      JOINT LeftFoot
      {
        OFFSET 0.177591 -0.487927 1.738650
        CHANNELS 3 Zrotation Yrotation Xrotation
        JOINT LeftToeBase
        {
          OFFSET 0.000000 -0.000000 0.912052
          CHANNELS 3 Zrotation Yrotation Xrotation
          End Site
          {
            OFFSET 0 0 0
          }
        }
      }
    }
  }
  JOINT RightUpLeg
  {
    OFFSET -2.104805 -5.782908 0.000000
    CHANNELS 3 Zrotation Yrotation Xrotation
    JOINT RightLeg
    {
      OFFSET -2.348802 -6.453285 0.000000
      CHANNELS 3 Zrotation Yrotation Xrotation
      JOINT RightFoot
      {
        OFFSET -0.228416 -0.627566 1.804693
        CHANNELS 3 Zrotation Yrotation Xrotation
        JOINT RightToeBase
        {
          OFFSET -0.000000 -0.000000 0.958865
          CHANNELS 3 Zrotation Yrotation Xrotation
          End Site
          {
            OFFSET 0 0 0
          }
        }
      }
    }
  }
}
MOTION
Frames: 12
Frame Time: 0.00833333
10.296300 14.467800 1.004460 539.805000 -107.083000 -549.965000 -29.719000 -11.696000 -0.149137 0.000000 0.000000 43.686600 14.450500 0.000000 -31.490200 0.000000 0.000000 2.435280 11.176900 22.909200 -25.951400 0.000000 0.000000 37.198700 -25.355100 0.000000 -37.665600 0.000000 0.000000 29.967900 -7.839830 1.986420 9.815340 -4.009840 1.765570 8.226820 0.064605 0.469553 3.022860 2.413540 -2.932760 -7.592270 2.743060 -2.231840 4.793580 -0.000000 -0.000000 0.000000 74.065100 -12.174900 -10.714300 0.000000 0.000000 29.740600 4.435770 0.000000 -22.905800 0.000000 0.000000 7.125020 -0.000000 -0.000000 0.000000 -91.958300 28.043300 -47.381900 0.000000 0.000000 90.878500 4.974700 0.000000 -8.463580 0.000000 0.000000 7.125020
10.300100 14.474400 1.006350 540.265000 -106.864000 -550.565000 -29.917200 -11.560200 0.099517 0.000000 0.000000 43.480900 14.620100 0.000000 -31.266500 0.000000 0.000000 2.769010 11.281900 22.529500 -26.025600 0.000000 0.000000 37.309000 -25.114700 0.000000 -38.203700 0.000000 0.000000 32.102500 -8.144520 1.843870 9.626400 -3.925300 1.580170 8.256520 0.338213 0.355752 3.163280 2.706910 -2.747500 -7.481290 2.579140 -2.105920 4.708320 -0.000000 0.000000 0.000000 74.654200 -12.134000 -11.081800 0.000000 0.000000 30.422100 5.225290 0.000000 -23.169100 0.000000 0.000000 7.125020 -0.000000 0.000000 0.000000 -91.843600 28.425500 -46.896000 0.000000 0.000000 90.744400 5.052970 0.000000 -8.908750 0.000000 0.000000 7.125020
10.318800 14.466600 1.025280 547.713000 -107.701000 -557.504000 -32.665100 -11.957000 0.151512 0.000000 0.000000 42.992600 15.040600 0.000000 -30.731500 0.000000 0.000000 2.982590 8.663440 20.479400 -26.547600 0.000000 0.000000 37.671000 -24.184400 0.000000 -37.338600 0.000000 0.000000 34.024500 -10.240600 1.646420 9.355650 -4.517720 1.195890 8.188230 0.896729 0.070913 3.278040 2.952280 -2.621520 -7.476840 2.454490 -2.024260 4.712630 -0.000000 0.000000 0.000000 75.298800 -12.392500 -11.381000 0.000000 0.000000 30.903300 5.571630 0.000000 -23.391400 0.000000 0.000000 7.125020 -0.000000 0.000000 0.000000 -91.758600 28.520500 -46.498900 0.000000 0.000000 90.678900 4.989320 0.000000 -9.479580 0.000000 0.000000 7.125020
10.337700 14.477700 1.032270 547.855000 -107.163000 -557.862000 -32.689200 -11.691100 0.558666 0.000000 0.000000 42.451900 15.301200 0.000000 -30.390800 0.000000 0.000000 3.318220 8.873390 20.244000 -26.783400 0.000000 0.000000 38.061900 -23.163100 0.000000 -37.396800 0.000000 0.000000 36.144300 -10.231300 1.616860 9.314980 -4.423360 1.164000 8.226750 0.992949 0.048411 3.342560 3.073740 -2.427980 -7.372700 2.436080 -1.896930 4.626140 -0.000000 -0.000000 0.000000 75.922200 -12.535800 -11.520000 0.000000 0.000000 31.098900 5.532910 0.000000 -23.058300 0.000000 0.000000 7.125020 -0.000000 -0.000000 0.000000 -91.666000 28.550800 -46.064000 0.000000 0.000000 90.680600 4.997110 0.000000 -9.403280 0.000000 0.000000 7.125020
10.364000 14.494900 1.040240 547.776000 -106.511000 -557.936000 -32.603600 -11.399400 0.861433 0.000000 0.000000 41.913000 15.588000 0.000000 -30.049100 0.000000 0.000000 3.580280 9.120070 19.786700 -27.069300 0.000000 0.000000 38.359700 -22.701700 0.000000 -36.382200 0.000000 0.000000 36.535100 -10.034500 1.609850 9.312460 -4.348890 1.166160 8.212020 0.963831 0.057960 3.325320 3.146170 -2.231740 -7.090510 2.475800 -1.769700 4.479650 0.000000 -0.000000 0.000000 76.460300 -12.795800 -11.634900 0.000000 0.000000 31.179100 5.615990 0.000000 -22.405200 0.000000 0.000000 7.125020 0.000000 -0.000000 0.000000 -91.679100 28.306300 -45.796700 0.000000 0.000000 90.772500 5.095180 0.000000 -9.467480 0.000000 0.000000 7.125020
10.397100 14.516200 1.049860 547.969000 -105.802000 -558.199000 -32.572800 -11.077200 0.989927 0.000000 0.000000 41.565500 15.887500 0.000000 -29.877300 0.000000 0.000000 3.909790 9.200770 19.297600 -27.286300 0.000000 0.000000 38.324700 -23.361300 0.000000 -34.046800 0.000000 0.000000 33.794100 -9.797440 1.645840 9.401020 -4.321770 1.209440 8.104570 0.859879 0.100219 3.155640 3.428660 -2.117240 -7.112700 2.377290 -1.699300 4.482470 0.000000 0.000000 0.000000 76.976900 -13.295700 -11.889100 0.000000 0.000000 31.310000 6.003840 0.000000 -21.583300 0.000000 0.000000 7.125020 0.000000 0.000000 0.000000 -91.843600 27.917800 -45.824900 0.000000 0.000000 91.015700 5.202110 0.000000 -9.605670 0.000000 0.000000 7.125020
10.430100 14.543300 1.048670 546.091000 -104.559000 -556.559000 -31.745900 -10.457400 1.139220 0.000000 0.000000 41.288100 16.086100 0.000000 -29.799100 0.000000 0.000000 4.042020 10.049200 19.723700 -27.373900 0.000000 0.000000 38.275000 -24.452700 0.000000 -31.619900 0.000000 0.000000 28.164600 -9.215450 1.737800 9.509910 -4.005790 1.355960 8.065900 0.860967 0.199980 3.034460 3.869480 -2.042240 -7.660350 2.073130 -1.652450 4.726580 -0.000000 -0.000000 0.000000 77.531600 -13.453100 -12.194900 0.000000 0.000000 31.393200 6.058940 0.000000 -20.800900 0.000000 0.000000 7.125020 -0.000000 -0.000000 0.000000 -91.937200 27.934100 -45.761000 0.000000 0.000000 91.350800 5.228730 0.000000 -9.711910 0.000000 0.000000 7.125020
10.470500 14.564400 1.052150 544.945000 -103.536000 -555.615000 -31.300300 -10.035300 1.266210 0.000000 0.000000 41.067300 16.290300 0.000000 -29.714200 0.000000 0.000000 4.422190 10.706500 19.357600 -27.318000 0.000000 0.000000 38.326900 -25.436300 0.000000 -28.443400 0.000000 0.000000 19.181800 -8.848050 1.768130 9.597040 -3.740490 1.412490 8.151480 0.931003 0.234037 3.067920 4.266340 -1.812530 -8.257080 1.824260 -1.500860 4.855470 -0.000000 -0.000000 0.000000 78.109400 -13.359700 -12.387200 0.000000 0.000000 31.348900 5.858620 0.000000 -20.419800 0.000000 0.000000 7.125020 -0.000000 -0.000000 0.000000 -91.898100 28.131300 -45.420600 0.000000 0.000000 91.715500 5.282770 0.000000 -9.926940 0.000000 0.000000 7.125020
10.516600 14.587500 1.057210 543.982000 -102.514000 -554.696000 -30.974700 -9.767240 1.185580 0.000000 0.000000 40.958800 16.552400 0.000000 -29.721900 0.000000 0.000000 5.713950 11.412600 18.406800 -27.311000 0.000000 0.000000 38.488600 -26.033300 0.000000 -25.339800 0.000000 0.000000 9.199550 -8.478380 1.817820 9.550670 -3.538800 1.510730 8.207440 0.932167 0.290854 3.141880 4.423230 -1.671090 -8.332250 1.721410 -1.403720 4.788870 -0.000000 0.000000 0.000000 78.690100 -13.421500 -12.657400 0.000000 0.000000 31.345700 6.087350 0.000000 -20.218600 0.000000 0.000000 7.125020 -0.000000 0.000000 0.000000 -91.966300 28.202800 -45.141200 0.000000 0.000000 92.072900 5.464760 0.000000 -10.304500 0.000000 0.000000 7.125020
10.567200 14.611300 1.059170 542.204000 -101.310000 -552.819000 -30.504300 -9.559230 0.916715 0.000000 0.000000 40.885300 17.075200 0.000000 -29.661200 0.000000 0.000000 6.910780 12.448400 17.178600 -27.419300 0.000000 0.000000 38.927100 -26.235500 0.000000 -22.515900 0.000000 0.000000 -0.293954 -7.981810 1.895840 9.453020 -3.302910 1.659070 8.144940 0.896819 0.387300 3.114500 4.718070 -1.490610 -8.425730 1.527160 -1.282220 4.761890 -0.000000 0.000000 0.000000 79.307500 -13.529000 -13.245500 0.000000 0.000000 31.237900 5.748760 0.000000 -20.804900 0.000000 0.000000 7.125020 -0.000000 0.000000 0.000000 -92.175200 28.366100 -44.992400 0.000000 0.000000 92.324600 5.719760 0.000000 -10.682400 0.000000 0.000000 7.125020
10.619400 14.631200 1.056640 539.997000 -100.108000 -550.534000 -30.083600 -9.480310 0.651598 0.000000 0.000000 40.853900 17.842800 0.000000 -29.566300 0.000000 0.000000 7.266760 13.623300 15.819500 -27.372800 0.000000 0.000000 39.600200 -26.133300 0.000000 -20.284300 0.000000 0.000000 -9.490110 -7.552890 1.960370 9.448710 -3.029320 1.772640 8.049480 0.937866 0.465707 3.003020 5.110680 -1.254000 -8.347830 1.290090 -1.122990 4.670610 0.000000 -0.000000 0.000000 79.948700 -13.225100 -13.936400 0.000000 0.000000 31.287400 5.868620 0.000000 -21.033900 0.000000 0.000000 7.125020 0.000000 -0.000000 0.000000 -92.412400 28.710700 -44.882900 0.000000 0.000000 92.535700 5.850220 0.000000 -11.005200 0.000000 0.000000 7.125020
10.673900 14.652000 1.058080 539.157000 -99.121800 -549.581000 -30.051500 -9.580320 0.347155 0.000000 0.000000 40.875100 18.626400 0.000000 -29.583100 0.000000 0.000000 7.509410 14.472300 14.131100 -27.203700 0.000000 0.000000 40.459900 -25.707300 0.000000 -18.861400 0.000000 0.000000 -16.671600 -7.403540 1.953910 9.411940 -2.815180 1.776950 8.020570 1.079150 0.471544 2.986960 5.422690 -0.981237 -8.308550 1.083760 -0.938716 4.580030 -0.000000 0.000000 0.000000 80.574700 -12.510700 -14.528200 0.000000 0.000000 31.245100 5.957800 0.000000 -21.100800 0.000000 0.000000 7.125020 -0.000000 0.000000 0.000000 -92.540600 29.152700 -44.644200 0.000000 0.000000 92.751500 6.023640 0.000000 -11.314400 0.000000 0.000000 7.125020
